# File created by Blade
# Date/Time:  Wed Apr 08 17:16:55 2015
#---------------------------------------------------------
:version 1.10
:name HOM
:units
  mass 1.0
  length 1.000000
  angle deg
:documentation
     Acclaim Skeleton File
:root
   axis xyz
   order TX TY TZ RX RY RZ
   position 0.000000 0.000000 0.000000
   orientation 0 0 0
:bonedata
   begin
      id 1
      name Spine_dum
      direction 0.000000 1.000000 0.000000
      length 5.893853
      axis 0.0 0.0 0.0 xyz
   end
   begin
      id 2
      name LeftUpLeg_dum
      direction 1.000000 0.000000 0.000000
      length 3.697939
      axis 0.0 0.0 0.0 xyz
   end
   begin
      id 3
      name RightUpLeg_dum
      direction -1.000000 0.000000 0.000000
      length 3.697939
      axis 0.0 0.0 0.0 xyz
   end
   begin
      id 4
      name Spine
      direction 0.000000 1.000000 0.000000
      length 0.000000
      axis 0.0 0.0 0.0 xyz
      dof rx ry rz
   end
   begin
      id 5
      name Spine_dum1
      direction 0.000000 1.000000 0.000000
      length 16.447146
      axis 0.0 0.0 0.0 xyz
   end
   begin
      id 6
      name Spine_dum2
      direction 0.000000 1.000000 0.000000
      length 10.900383
      axis 0.0 0.0 0.0 xyz
   end
   begin
      id 7
      name Spine_dum3
      direction 0.000000 1.000000 0.000000
      length 10.900383
      axis 0.0 0.0 0.0 xyz
   end
   begin
      id 8
      name Head
      direction 0.000000 1.000000 0.000000
      length 4.527550
      axis 0.0 0.0 0.0 xyz
      dof rx ry rz
   end
   begin
      id 9
      name LeftShoulder
      direction 1.000000 0.000000 0.000000
      length 8.219464
      axis 0.0 0.0 -90.0 xyz
      dof rx ry rz
   end
   begin
      id 10
      name LeftArm
      direction 1.000000 0.000000 0.000000
      length 11.094937
      axis 0.0 0.0 -90.0 xyz
      dof rx ry rz
   end
   begin
      id 11
      name LeftForeArm
      direction 1.000000 0.000000 0.000000
      length 9.103875
      axis 0.0 0.0 -90.0 xyz
      dof ry rz rx
   end
   begin
      id 12
      name LeftHand
      direction 0.000000 0.000000 0.000000
      length 0.000000
      axis 0.0 0.0 -90.0 xyz
      dof rx ry rz
   end
   begin
      id 13
      name LeftHand_dum1
      direction 0.000000 0.000000 0.000000
      length 0.000000
      axis 0.0 0.0 -90.0 xyz
   end
   begin
      id 14
      name LeftHand_dum2
      direction 1.000000 0.000000 0.000000
      length 3.937000
      axis 0.0 0.0 -90.0 xyz
   end
   begin
      id 15
      name LeftHandThumb1
      direction 0.000000 0.000000 1.000000
      length 3.937000
      axis 0.0 0.0 -90.0 xyz
      dof rx rz ry
   end
   begin
      id 16
      name RightShoulder
      direction -1.000000 0.000000 0.000000
      length 8.219464
      axis 0.0 0.0 90.0 xyz
      dof rx ry rz
   end
   begin
      id 17
      name RightArm
      direction -1.000000 0.000000 0.000000
      length 11.094937
      axis 0.0 0.0 90.0 xyz
      dof rx ry rz
   end
   begin
      id 18
      name RightForeArm
      direction -1.000000 0.000000 0.000000
      length 9.103875
      axis 0.0 0.0 90.0 xyz
      dof ry rz rx
   end
   begin
      id 19
      name RightHand
      direction 0.000000 0.000000 0.000000
      length 0.000000
      axis 0.0 0.0 90.0 xyz
      dof rx ry rz
   end
   begin
      id 20
      name RightHand_dum1
      direction 0.000000 0.000000 0.000000
      length 0.000000
      axis 0.0 0.0 90.0 xyz
   end
   begin
      id 21
      name RightHand_dum2
      direction -1.000000 0.000000 0.000000
      length 3.937000
      axis 0.0 0.0 90.0 xyz
   end
   begin
      id 22
      name RightHandThumb1
      direction 0.000000 0.000000 1.000000
      length 3.937000
      axis 0.0 0.0 90.0 xyz
      dof rx rz ry
   end
   begin
      id 23
      name LeftUpLeg
      direction 0.000000 -1.000000 0.000000
      length 16.181467
      axis 0.0 0.0 0.0 xyz
      dof rx ry rz
   end
   begin
      id 24
      name LeftLeg
      direction 0.000000 -1.000000 0.000000
      length 16.501392
      axis 0.0 0.0 0.0 xyz
      dof rx ry rz
   end
   begin
      id 25
      name LeftFoot
      direction 0.000000 -0.258819 0.965926
      length 6.408245
      axis 15.0 0.0 0.0 xyz
      dof rx ry rz
   end
   begin
      id 26
      name LeftToeBase
      direction 0.000000 0.000000 1.000000
      length 2.952750
      axis 0.0 0.0 0.0 xyz
      dof rx ry rz
   end
   begin
      id 27
      name RightUpLeg
      direction 0.000000 -1.000000 0.000000
      length 16.181467
      axis 0.0 0.0 0.0 xyz
      dof rx ry rz
   end
   begin
      id 28
      name RightLeg
      direction 0.000000 -1.000000 0.000000
      length 16.501392
      axis 0.0 0.0 0.0 xyz
      dof rx ry rz
   end
   begin
      id 29
      name RightFoot
      direction 0.000000 -0.258819 0.965926
      length 6.408245
      axis 15.0 0.0 0.0 xyz
      dof rx ry rz
   end
   begin
      id 30
      name RightToeBase
      direction 0.000000 0.000000 1.000000
      length 2.952750
      axis 0.0 0.0 0.0 xyz
      dof rx ry rz
   end
:hierarchy
   begin
      root Spine_dum LeftUpLeg_dum RightUpLeg_dum
      Spine_dum Spine
      LeftUpLeg_dum LeftUpLeg
      RightUpLeg_dum RightUpLeg
      Spine Spine_dum1 Spine_dum2 Spine_dum3
      Spine_dum1 Head
      Spine_dum2 LeftShoulder
      Spine_dum3 RightShoulder
      LeftShoulder LeftArm
      LeftArm LeftForeArm
      LeftForeArm LeftHand
      LeftHand LeftHand_dum1 LeftHand_dum2
      LeftHand_dum1 LeftHandThumb1
      RightShoulder RightArm
      RightArm RightForeArm
      RightForeArm RightHand
      RightHand RightHand_dum1 RightHand_dum2
      RightHand_dum1 RightHandThumb1
      LeftUpLeg LeftLeg
      LeftLeg LeftFoot
      LeftFoot LeftToeBase
      RightUpLeg RightLeg
      RightLeg RightFoot
      RightFoot RightToeBase
   end

# File created by Blade
# Date/Time:  Wed Apr 08 17:17:01 2015
# Frame Rate: 120.000 fps
#------------------------------------------------------
:FULLY-SPECIFIED
:DEGREES
280
root 5.269958 36.009744 4.610781 -12.610020 -34.207343 1.682416
Spine 16.514075 -4.253647 -2.471986
Head 9.554496 15.341953 3.428367
LeftShoulder -9.107131 18.522347 11.114185
LeftArm 19.916754 22.634863 -79.214977
LeftForeArm 20.832227 -0.000000 25.299471
LeftHand -11.507967 -0.000000 -13.001149
LeftHandThumb1 -26.253704 0.000000 33.147579
RightShoulder -35.181320 -49.943432 17.031777
RightArm 51.372848 -18.540916 57.428782
RightForeArm 6.875459 -0.000000 25.188867
RightHand 3.208510 -0.000000 4.214983
RightHandThumb1 -24.326973 -0.000000 -32.862282
LeftUpLeg 10.419171 -1.797534 -7.506045
LeftLeg 12.946290 -0.000000 -0.000000
LeftFoot -11.637587 -2.615183 -4.513154
LeftToeBase 6.602120 -0.000000 -0.000000
RightUpLeg -63.060103 9.087789 10.797995
RightLeg 135.601063 -0.000000 -0.000000
RightFoot -15.124178 -0.144126 8.619896
RightToeBase -6.258141 -0.000000 0.000000
281
root 5.270242 36.007259 4.628892 -12.609888 -34.041446 1.709528
Spine 16.400317 -4.250347 -2.502372
Head 9.977826 15.315832 3.511342
LeftShoulder -9.158298 18.517618 11.091718
LeftArm 19.864840 22.484530 -79.241604
LeftForeArm 20.829798 -0.000000 25.089653
LeftHand -11.626066 -0.000000 -12.983685
LeftHandThumb1 -26.253704 0.000000 33.147579
RightShoulder -35.140755 -49.946233 16.992631
RightArm 51.358094 -18.602321 57.388304
RightForeArm 6.634871 0.000000 25.099389
RightHand 3.200433 -0.000000 4.277183
RightHandThumb1 -24.326973 -0.000000 -32.862282
LeftUpLeg 10.427360 -2.004275 -7.576817
LeftLeg 12.962589 -0.000000 -0.000000
LeftFoot -11.668797 -2.741963 -4.663015
LeftToeBase 6.835975 -0.000000 -0.000000
RightUpLeg -62.997419 9.147053 10.786796
RightLeg 135.663069 -0.000000 -0.000000
RightFoot -15.104685 -0.223859 8.569954
RightToeBase -6.400408 -0.000000 0.000000
282
root 5.272682 36.006114 4.647965 -12.609683 -33.855282 1.762573
Spine 16.270845 -4.249260 -2.559659
Head 10.418257 15.297523 3.600475
LeftShoulder -9.171291 18.503309 11.081134
LeftArm 19.801461 22.335269 -79.274368
LeftForeArm 20.767793 -0.000000 24.871228
LeftHand -11.587153 -0.000000 -12.934878
LeftHandThumb1 -26.253704 0.000000 33.147579
RightShoulder -35.164767 -49.960984 17.019532
RightArm 51.400807 -18.660044 57.301415
RightForeArm 6.476592 -0.000000 24.964505
RightHand 3.197994 0.000000 4.469859
RightHandThumb1 -24.326973 -0.000000 -32.862282
LeftUpLeg 10.466558 -2.391929 -7.718067
LeftLeg 12.897815 -0.000000 -0.000000
LeftFoot -11.725694 -2.748830 -4.999068
LeftToeBase 7.352724 -0.000000 -0.000000
RightUpLeg -62.956379 9.171368 10.716227
RightLeg 135.744179 -0.000000 -0.000000
RightFoot -15.096016 -0.222264 8.559067
RightToeBase -6.457538 -0.000000 0.000000
283
root 5.268330 36.006001 4.662985 -12.562834 -33.657082 1.713222
Spine 16.159166 -4.289131 -2.535754
Head 10.856855 15.313917 3.661018
LeftShoulder -9.191118 18.486019 11.070745
LeftArm 19.750235 22.190400 -79.318125
LeftForeArm 20.724297 0.000000 24.617105
LeftHand -11.543502 -0.000000 -12.864968
LeftHandThumb1 -26.253704 0.000000 33.147579
RightShoulder -35.156704 -49.974244 17.014521
RightArm 51.398593 -18.682810 57.279744
RightForeArm 6.163656 -0.000000 24.870429
RightHand 3.145459 -0.000000 4.668826
RightHandThumb1 -24.326973 -0.000000 -32.862282
LeftUpLeg 10.406200 -2.372431 -7.632955
LeftLeg 13.036471 -0.000000 -0.000000
LeftFoot -11.851396 -3.214894 -5.267730
LeftToeBase 8.067939 -0.000000 -0.000000
RightUpLeg -62.890263 9.165686 10.729849
RightLeg 135.803533 -0.000000 -0.000000
RightFoot -15.107559 -0.179932 8.561021
RightToeBase -6.351635 -0.000000 0.000000
284
root 5.267168 36.007075 4.679871 -12.559308 -33.463197 1.729897
Spine 16.056869 -4.291435 -2.572981
Head 11.306815 15.302613 3.750021
LeftShoulder -9.180269 18.441677 11.079313
LeftArm 19.671161 22.038075 -79.369825
LeftForeArm 20.691465 0.000000 24.408966
LeftHand -11.515469 -0.000000 -12.729081
LeftHandThumb1 -26.253704 0.000000 33.147579
RightShoulder -35.174009 -49.989642 17.047744
RightArm 51.381860 -18.690359 57.273001
RightForeArm 5.926323 0.000000 24.801654
RightHand 3.062080 -0.000000 4.697342
RightHandThumb1 -24.326973 -0.000000 -32.862282
LeftUpLeg 10.406866 -2.422655 -7.629478
LeftLeg 13.066265 -0.000000 -0.000000
LeftFoot -11.961989 -3.607005 -5.664726
LeftToeBase 9.021406 -0.000000 -0.000000
RightUpLeg -62.830329 9.148557 10.684981
RightLeg 135.884118 -0.000000 -0.000000
RightFoot -15.098508 -0.178833 8.592623
RightToeBase -6.289921 -0.000000 0.000000
285
root 5.268050 36.008753 4.698110 -12.553331 -33.238706 1.752024
Spine 15.957736 -4.321547 -2.613590
Head 11.726921 15.317524 3.833973
LeftShoulder -9.177045 18.406603 11.074563
LeftArm 19.634619 21.936413 -79.384986
LeftForeArm 20.662330 -0.000000 24.209997
LeftHand -11.525575 -0.000000 -12.719569
LeftHandThumb1 -26.253704 0.000000 33.147579
RightShoulder -35.187632 -50.013000 17.070403
RightArm 51.360214 -18.682707 57.289448
RightForeArm 5.758934 -0.000000 24.732716
RightHand 2.928398 -0.000000 4.704360
RightHandThumb1 -24.326973 -0.000000 -32.862282
LeftUpLeg 10.417630 -2.482813 -7.636928
LeftLeg 13.060998 -0.000000 -0.000000
LeftFoot -12.019118 -3.987282 -5.999035
LeftToeBase 9.785566 -0.000000 -0.000000
RightUpLeg -62.783083 9.092780 10.602891
RightLeg 135.983481 -0.000000 -0.000000
RightFoot -15.072924 -0.169960 8.632388
RightToeBase -6.387183 -0.000000 0.000000
286
root 5.270284 36.011860 4.715669 -12.548842 -33.019513 1.778031
Spine 15.871778 -4.311497 -2.646865
Head 12.146100 15.341829 3.930670
LeftShoulder -9.127282 18.375050 11.080564
LeftArm 19.593853 21.789497 -79.410697
LeftForeArm 20.628198 -0.000000 24.094334
LeftHand -11.921184 0.000000 -12.765787
LeftHandThumb1 -26.253704 0.000000 33.147579
RightShoulder -35.063327 -49.924293 16.942067
RightArm 51.113752 -18.693934 57.460735
RightForeArm 5.580416 -0.000000 24.707368
RightHand 2.867548 -0.000000 4.788571
RightHandThumb1 -24.326973 -0.000000 -32.862282
LeftUpLeg 10.435070 -2.477581 -7.628700
LeftLeg 13.032709 -0.000000 -0.000000
LeftFoot -12.056980 -4.392228 -6.389483
LeftToeBase 10.568071 -0.000000 -0.000000
RightUpLeg -62.742362 9.039169 10.503307
RightLeg 136.077176 -0.000000 -0.000000
RightFoot -15.087453 -0.184878 8.513358
RightToeBase -6.386161 -0.000000 0.000000
287
root 5.265450 36.013603 4.730874 -12.537235 -32.807690 1.753754
Spine 15.815720 -4.338840 -2.656109
Head 12.535336 15.383827 4.007910
LeftShoulder -9.134131 18.370127 11.056989
LeftArm 19.614714 21.674937 -79.378913
LeftForeArm 20.694499 -0.000000 23.942599
LeftHand -11.695453 -0.000000 -12.838205
LeftHandThumb1 -26.253704 0.000000 33.147579
RightShoulder -35.142910 -49.983457 17.032163
RightArm 51.195229 -18.690521 57.389194
RightForeArm 5.541694 -0.000000 24.573075
RightHand 2.836941 -0.000000 4.798906
RightHandThumb1 -24.326973 -0.000000 -32.862282
LeftUpLeg 10.352683 -1.976931 -7.427662
LeftLeg 13.227810 -0.000000 -0.000000
LeftFoot -12.137908 -5.240663 -6.582652
LeftToeBase 11.432596 -0.000000 -0.000000
RightUpLeg -62.665699 8.998637 10.457817
RightLeg 136.161709 -0.000000 -0.000000
RightFoot -15.142184 -0.163986 8.516795
RightToeBase -6.469477 -0.000000 0.000000
288
root 5.271023 36.020923 4.753074 -12.607747 -32.618096 1.884688
Spine 15.754157 -4.278705 -2.792506
Head 12.940763 15.374830 4.137894
LeftShoulder -9.085333 18.349739 11.054622
LeftArm 19.615912 21.583630 -79.359600
LeftForeArm 20.754757 0.000000 23.827097
LeftHand -11.721651 -0.000000 -12.816640
LeftHandThumb1 -26.253704 0.000000 33.147579
RightShoulder -35.172090 -49.995394 17.099544
RightArm 51.158542 -18.631953 57.419208
RightForeArm 5.732592 -0.000000 24.455847
RightHand 2.717252 -0.000000 5.036542
RightHandThumb1 -24.326973 -0.000000 -32.862282
LeftUpLeg 10.608542 -2.415491 -7.638858
LeftLeg 12.788349 -0.000000 -0.000000
LeftFoot -12.067551 -5.273622 -7.299902
LeftToeBase 12.384544 -0.000000 -0.000000
RightUpLeg -62.616823 8.980397 10.212349
RightLeg 136.264441 -0.000000 -0.000000
RightFoot -15.173896 -0.064034 8.478962
RightToeBase -6.451595 -0.000000 0.000000
289
root 5.269327 36.026358 4.772347 -12.665813 -32.438247 1.949175
Spine 15.728591 -4.245315 -2.885452
Head 13.322879 15.404455 4.252337
LeftShoulder -9.055288 18.327375 11.066977
LeftArm 19.607998 21.525140 -79.338657
LeftForeArm 20.741194 -0.000000 23.730577
LeftHand -11.671854 -0.000000 -12.741609
LeftHandThumb1 -26.253704 0.000000 33.147579
RightShoulder -35.172337 -50.008730 17.110680
RightArm 51.164555 -18.653326 57.383474
RightForeArm 5.871263 -0.000000 24.317802
RightHand 2.565079 -0.000000 5.142651
RightHandThumb1 -24.326973 -0.000000 -32.862282
LeftUpLeg 10.785426 -2.555492 -7.705764
LeftLeg 12.548328 -0.000000 -0.000000
LeftFoot -12.071491 -5.513654 -7.885016
LeftToeBase 13.422453 -0.000000 -0.000000
RightUpLeg -62.523267 8.981737 10.058082
RightLeg 136.358402 -0.000000 -0.000000
RightFoot -15.229782 -0.025133 8.434626
RightToeBase -6.369092 -0.000000 0.000000
290
root 5.266778 36.030463 4.790279 -12.696344 -32.267306 1.991931
Spine 15.690873 -4.226147 -2.963848
Head 13.675074 15.414039 4.365596
LeftShoulder -9.055014 18.345567 11.081659
LeftArm 19.656074 21.481642 -79.314365
LeftForeArm 20.720141 -0.000000 23.647116
LeftHand -11.674091 -0.000000 -12.622716
LeftHandThumb1 -26.253704 0.000000 33.147579
RightShoulder -35.125507 -50.031178 17.073369
RightArm 51.166545 -18.680961 57.345971
RightForeArm 5.996193 -0.000000 24.174379
RightHand 2.405130 -0.000000 5.254281
RightHandThumb1 -24.326973 -0.000000 -32.862282
LeftUpLeg 10.848061 -2.450452 -7.673409
LeftLeg 12.486034 -0.000000 -0.000000
LeftFoot -12.098123 -5.985704 -8.380629
LeftToeBase 14.343951 -0.000000 -0.000000
RightUpLeg -62.447702 9.008564 9.888962
RightLeg 136.446066 -0.000000 -0.000000
RightFoot -15.279910 0.095972 8.472414
RightToeBase -6.430541 -0.000000 0.000000
